  0
SECTION
  2
BLOCKS
  0
ENDSEC
  0
SECTION
  2
ENTITIES
  0
LINE
  8
0
 10
-26.924
 11
-26.924
 20
-19.05
 21
25.4
  0
LINE
  8
0
 10
-26.924
 11
26.924
 20
25.4
 21
25.4
  0
LINE
  8
0
 10
26.924
 11
26.924
 20
25.4
 21
-19.05
  0
LINE
  8
0
 10
26.924
 11
14.224
 20
-19.05
 21
-19.05
  0
LINE
  8
0
 10
14.224
 11
14.224
 20
-19.05
 21
-25.4
  0
LINE
  8
0
 10
14.224
 11
-14.224
 20
-25.4
 21
-25.4
  0
LINE
  8
0
 10
-14.224
 11
-14.224
 20
-25.4
 21
-19.05
  0
LINE
  8
0
 10
-14.224
 11
-26.924
 20
-19.05
 21
-19.05
  0
LINE
  8
0
 10
-25.273
 11
-25.27
 20
-10.922
 21
-10.826
  0
LINE
  8
0
 10
-25.27
 11
-25.261
 20
-10.826
 21
-10.731
  0
LINE
  8
0
 10
-25.261
 11
-25.246
 20
-10.731
 21
-10.636
  0
LINE
  8
0
 10
-25.246
 11
-25.225
 20
-10.636
 21
-10.543
  0
LINE
  8
0
 10
-25.225
 11
-25.198
 20
-10.543
 21
-10.451
  0
LINE
  8
0
 10
-25.198
 11
-25.166
 20
-10.451
 21
-10.361
  0
LINE
  8
0
 10
-25.166
 11
-25.128
 20
-10.361
 21
-10.273
  0
LINE
  8
0
 10
-25.128
 11
-25.084
 20
-10.273
 21
-10.188
  0
LINE
  8
0
 10
-25.084
 11
-25.036
 20
-10.188
 21
-10.105
  0
LINE
  8
0
 10
-25.036
 11
-24.982
 20
-10.105
 21
-10.026
  0
LINE
  8
0
 10
-24.982
 11
-24.923
 20
-10.026
 21
-9.951
  0
LINE
  8
0
 10
-24.923
 11
-24.86
 20
-9.951
 21
-9.879
  0
LINE
  8
0
 10
-24.86
 11
-24.792
 20
-9.879
 21
-9.811
  0
LINE
  8
0
 10
-24.792
 11
-24.72
 20
-9.811
 21
-9.748
  0
LINE
  8
0
 10
-24.72
 11
-24.645
 20
-9.748
 21
-9.689
  0
LINE
  8
0
 10
-24.645
 11
-24.566
 20
-9.689
 21
-9.635
  0
LINE
  8
0
 10
-24.566
 11
-24.483
 20
-9.635
 21
-9.587
  0
LINE
  8
0
 10
-24.483
 11
-24.398
 20
-9.587
 21
-9.543
  0
LINE
  8
0
 10
-24.398
 11
-24.31
 20
-9.543
 21
-9.505
  0
LINE
  8
0
 10
-24.31
 11
-24.22
 20
-9.505
 21
-9.473
  0
LINE
  8
0
 10
-24.22
 11
-24.128
 20
-9.473
 21
-9.446
  0
LINE
  8
0
 10
-24.128
 11
-24.035
 20
-9.446
 21
-9.425
  0
LINE
  8
0
 10
-24.035
 11
-23.94
 20
-9.425
 21
-9.41
  0
LINE
  8
0
 10
-23.94
 11
-23.845
 20
-9.41
 21
-9.401
  0
LINE
  8
0
 10
-23.845
 11
-23.749
 20
-9.401
 21
-9.398
  0
LINE
  8
0
 10
-23.749
 11
-23.653
 20
-9.398
 21
-9.401
  0
LINE
  8
0
 10
-23.653
 11
-23.558
 20
-9.401
 21
-9.41
  0
LINE
  8
0
 10
-23.558
 11
-23.463
 20
-9.41
 21
-9.425
  0
LINE
  8
0
 10
-23.463
 11
-23.37
 20
-9.425
 21
-9.446
  0
LINE
  8
0
 10
-23.37
 11
-23.278
 20
-9.446
 21
-9.473
  0
LINE
  8
0
 10
-23.278
 11
-23.188
 20
-9.473
 21
-9.505
  0
LINE
  8
0
 10
-23.188
 11
-23.1
 20
-9.505
 21
-9.543
  0
LINE
  8
0
 10
-23.1
 11
-23.015
 20
-9.543
 21
-9.587
  0
LINE
  8
0
 10
-23.015
 11
-22.932
 20
-9.587
 21
-9.635
  0
LINE
  8
0
 10
-22.932
 11
-22.853
 20
-9.635
 21
-9.689
  0
LINE
  8
0
 10
-22.853
 11
-22.778
 20
-9.689
 21
-9.748
  0
LINE
  8
0
 10
-22.778
 11
-22.706
 20
-9.748
 21
-9.811
  0
LINE
  8
0
 10
-22.706
 11
-22.638
 20
-9.811
 21
-9.879
  0
LINE
  8
0
 10
-22.638
 11
-22.575
 20
-9.879
 21
-9.951
  0
LINE
  8
0
 10
-22.575
 11
-22.516
 20
-9.951
 21
-10.026
  0
LINE
  8
0
 10
-22.516
 11
-22.462
 20
-10.026
 21
-10.105
  0
LINE
  8
0
 10
-22.462
 11
-22.414
 20
-10.105
 21
-10.188
  0
LINE
  8
0
 10
-22.414
 11
-22.37
 20
-10.188
 21
-10.273
  0
LINE
  8
0
 10
-22.37
 11
-22.332
 20
-10.273
 21
-10.361
  0
LINE
  8
0
 10
-22.332
 11
-22.3
 20
-10.361
 21
-10.451
  0
LINE
  8
0
 10
-22.3
 11
-22.273
 20
-10.451
 21
-10.543
  0
LINE
  8
0
 10
-22.273
 11
-22.252
 20
-10.543
 21
-10.636
  0
LINE
  8
0
 10
-22.252
 11
-22.237
 20
-10.636
 21
-10.731
  0
LINE
  8
0
 10
-22.237
 11
-22.228
 20
-10.731
 21
-10.826
  0
LINE
  8
0
 10
-22.228
 11
-22.225
 20
-10.826
 21
-10.922
  0
LINE
  8
0
 10
-22.225
 11
-22.228
 20
-10.922
 21
-11.018
  0
LINE
  8
0
 10
-22.228
 11
-22.237
 20
-11.018
 21
-11.113
  0
LINE
  8
0
 10
-22.237
 11
-22.252
 20
-11.113
 21
-11.208
  0
LINE
  8
0
 10
-22.252
 11
-22.273
 20
-11.208
 21
-11.301
  0
LINE
  8
0
 10
-22.273
 11
-22.3
 20
-11.301
 21
-11.393
  0
LINE
  8
0
 10
-22.3
 11
-22.332
 20
-11.393
 21
-11.483
  0
LINE
  8
0
 10
-22.332
 11
-22.37
 20
-11.483
 21
-11.571
  0
LINE
  8
0
 10
-22.37
 11
-22.414
 20
-11.571
 21
-11.656
  0
LINE
  8
0
 10
-22.414
 11
-22.462
 20
-11.656
 21
-11.739
  0
LINE
  8
0
 10
-22.462
 11
-22.516
 20
-11.739
 21
-11.818
  0
LINE
  8
0
 10
-22.516
 11
-22.575
 20
-11.818
 21
-11.893
  0
LINE
  8
0
 10
-22.575
 11
-22.638
 20
-11.893
 21
-11.965
  0
LINE
  8
0
 10
-22.638
 11
-22.706
 20
-11.965
 21
-12.033
  0
LINE
  8
0
 10
-22.706
 11
-22.778
 20
-12.033
 21
-12.096
  0
LINE
  8
0
 10
-22.778
 11
-22.853
 20
-12.096
 21
-12.155
  0
LINE
  8
0
 10
-22.853
 11
-22.932
 20
-12.155
 21
-12.209
  0
LINE
  8
0
 10
-22.932
 11
-23.015
 20
-12.209
 21
-12.257
  0
LINE
  8
0
 10
-23.015
 11
-23.1
 20
-12.257
 21
-12.301
  0
LINE
  8
0
 10
-23.1
 11
-23.188
 20
-12.301
 21
-12.339
  0
LINE
  8
0
 10
-23.188
 11
-23.278
 20
-12.339
 21
-12.371
  0
LINE
  8
0
 10
-23.278
 11
-23.37
 20
-12.371
 21
-12.398
  0
LINE
  8
0
 10
-23.37
 11
-23.463
 20
-12.398
 21
-12.419
  0
LINE
  8
0
 10
-23.463
 11
-23.558
 20
-12.419
 21
-12.434
  0
LINE
  8
0
 10
-23.558
 11
-23.653
 20
-12.434
 21
-12.443
  0
LINE
  8
0
 10
-23.653
 11
-23.749
 20
-12.443
 21
-12.446
  0
LINE
  8
0
 10
-23.749
 11
-23.845
 20
-12.446
 21
-12.443
  0
LINE
  8
0
 10
-23.845
 11
-23.94
 20
-12.443
 21
-12.434
  0
LINE
  8
0
 10
-23.94
 11
-24.035
 20
-12.434
 21
-12.419
  0
LINE
  8
0
 10
-24.035
 11
-24.128
 20
-12.419
 21
-12.398
  0
LINE
  8
0
 10
-24.128
 11
-24.22
 20
-12.398
 21
-12.371
  0
LINE
  8
0
 10
-24.22
 11
-24.31
 20
-12.371
 21
-12.339
  0
LINE
  8
0
 10
-24.31
 11
-24.398
 20
-12.339
 21
-12.301
  0
LINE
  8
0
 10
-24.398
 11
-24.483
 20
-12.301
 21
-12.257
  0
LINE
  8
0
 10
-24.483
 11
-24.566
 20
-12.257
 21
-12.209
  0
LINE
  8
0
 10
-24.566
 11
-24.645
 20
-12.209
 21
-12.155
  0
LINE
  8
0
 10
-24.645
 11
-24.72
 20
-12.155
 21
-12.096
  0
LINE
  8
0
 10
-24.72
 11
-24.792
 20
-12.096
 21
-12.033
  0
LINE
  8
0
 10
-24.792
 11
-24.86
 20
-12.033
 21
-11.965
  0
LINE
  8
0
 10
-24.86
 11
-24.923
 20
-11.965
 21
-11.893
  0
LINE
  8
0
 10
-24.923
 11
-24.982
 20
-11.893
 21
-11.818
  0
LINE
  8
0
 10
-24.982
 11
-25.036
 20
-11.818
 21
-11.739
  0
LINE
  8
0
 10
-25.036
 11
-25.084
 20
-11.739
 21
-11.656
  0
LINE
  8
0
 10
-25.084
 11
-25.128
 20
-11.656
 21
-11.571
  0
LINE
  8
0
 10
-25.128
 11
-25.166
 20
-11.571
 21
-11.483
  0
LINE
  8
0
 10
-25.166
 11
-25.198
 20
-11.483
 21
-11.393
  0
LINE
  8
0
 10
-25.198
 11
-25.225
 20
-11.393
 21
-11.301
  0
LINE
  8
0
 10
-25.225
 11
-25.246
 20
-11.301
 21
-11.208
  0
LINE
  8
0
 10
-25.246
 11
-25.261
 20
-11.208
 21
-11.113
  0
LINE
  8
0
 10
-25.261
 11
-25.27
 20
-11.113
 21
-11.018
  0
LINE
  8
0
 10
-25.27
 11
-25.273
 20
-11.018
 21
-10.922
  0
LINE
  8
0
 10
-25.273
 11
-25.27
 20
22.225
 21
22.321
  0
LINE
  8
0
 10
-25.27
 11
-25.261
 20
22.321
 21
22.416
  0
LINE
  8
0
 10
-25.261
 11
-25.246
 20
22.416
 21
22.511
  0
LINE
  8
0
 10
-25.246
 11
-25.225
 20
22.511
 21
22.604
  0
LINE
  8
0
 10
-25.225
 11
-25.198
 20
22.604
 21
22.696
  0
LINE
  8
0
 10
-25.198
 11
-25.166
 20
22.696
 21
22.786
  0
LINE
  8
0
 10
-25.166
 11
-25.128
 20
22.786
 21
22.874
  0
LINE
  8
0
 10
-25.128
 11
-25.084
 20
22.874
 21
22.959
  0
LINE
  8
0
 10
-25.084
 11
-25.036
 20
22.959
 21
23.042
  0
LINE
  8
0
 10
-25.036
 11
-24.982
 20
23.042
 21
23.121
  0
LINE
  8
0
 10
-24.982
 11
-24.923
 20
23.121
 21
23.196
  0
LINE
  8
0
 10
-24.923
 11
-24.86
 20
23.196
 21
23.268
  0
LINE
  8
0
 10
-24.86
 11
-24.792
 20
23.268
 21
23.336
  0
LINE
  8
0
 10
-24.792
 11
-24.72
 20
23.336
 21
23.399
  0
LINE
  8
0
 10
-24.72
 11
-24.645
 20
23.399
 21
23.458
  0
LINE
  8
0
 10
-24.645
 11
-24.566
 20
23.458
 21
23.512
  0
LINE
  8
0
 10
-24.566
 11
-24.483
 20
23.512
 21
23.56
  0
LINE
  8
0
 10
-24.483
 11
-24.398
 20
23.56
 21
23.604
  0
LINE
  8
0
 10
-24.398
 11
-24.31
 20
23.604
 21
23.642
  0
LINE
  8
0
 10
-24.31
 11
-24.22
 20
23.642
 21
23.674
  0
LINE
  8
0
 10
-24.22
 11
-24.128
 20
23.674
 21
23.701
  0
LINE
  8
0
 10
-24.128
 11
-24.035
 20
23.701
 21
23.722
  0
LINE
  8
0
 10
-24.035
 11
-23.94
 20
23.722
 21
23.737
  0
LINE
  8
0
 10
-23.94
 11
-23.845
 20
23.737
 21
23.746
  0
LINE
  8
0
 10
-23.845
 11
-23.749
 20
23.746
 21
23.749
  0
LINE
  8
0
 10
-23.749
 11
-23.653
 20
23.749
 21
23.746
  0
LINE
  8
0
 10
-23.653
 11
-23.558
 20
23.746
 21
23.737
  0
LINE
  8
0
 10
-23.558
 11
-23.463
 20
23.737
 21
23.722
  0
LINE
  8
0
 10
-23.463
 11
-23.37
 20
23.722
 21
23.701
  0
LINE
  8
0
 10
-23.37
 11
-23.278
 20
23.701
 21
23.674
  0
LINE
  8
0
 10
-23.278
 11
-23.188
 20
23.674
 21
23.642
  0
LINE
  8
0
 10
-23.188
 11
-23.1
 20
23.642
 21
23.604
  0
LINE
  8
0
 10
-23.1
 11
-23.015
 20
23.604
 21
23.56
  0
LINE
  8
0
 10
-23.015
 11
-22.932
 20
23.56
 21
23.512
  0
LINE
  8
0
 10
-22.932
 11
-22.853
 20
23.512
 21
23.458
  0
LINE
  8
0
 10
-22.853
 11
-22.778
 20
23.458
 21
23.399
  0
LINE
  8
0
 10
-22.778
 11
-22.706
 20
23.399
 21
23.336
  0
LINE
  8
0
 10
-22.706
 11
-22.638
 20
23.336
 21
23.268
  0
LINE
  8
0
 10
-22.638
 11
-22.575
 20
23.268
 21
23.196
  0
LINE
  8
0
 10
-22.575
 11
-22.516
 20
23.196
 21
23.121
  0
LINE
  8
0
 10
-22.516
 11
-22.462
 20
23.121
 21
23.042
  0
LINE
  8
0
 10
-22.462
 11
-22.414
 20
23.042
 21
22.959
  0
LINE
  8
0
 10
-22.414
 11
-22.37
 20
22.959
 21
22.874
  0
LINE
  8
0
 10
-22.37
 11
-22.332
 20
22.874
 21
22.786
  0
LINE
  8
0
 10
-22.332
 11
-22.3
 20
22.786
 21
22.696
  0
LINE
  8
0
 10
-22.3
 11
-22.273
 20
22.696
 21
22.604
  0
LINE
  8
0
 10
-22.273
 11
-22.252
 20
22.604
 21
22.511
  0
LINE
  8
0
 10
-22.252
 11
-22.237
 20
22.511
 21
22.416
  0
LINE
  8
0
 10
-22.237
 11
-22.228
 20
22.416
 21
22.321
  0
LINE
  8
0
 10
-22.228
 11
-22.225
 20
22.321
 21
22.225
  0
LINE
  8
0
 10
-22.225
 11
-22.228
 20
22.225
 21
22.129
  0
LINE
  8
0
 10
-22.228
 11
-22.237
 20
22.129
 21
22.034
  0
LINE
  8
0
 10
-22.237
 11
-22.252
 20
22.034
 21
21.939
  0
LINE
  8
0
 10
-22.252
 11
-22.273
 20
21.939
 21
21.846
  0
LINE
  8
0
 10
-22.273
 11
-22.3
 20
21.846
 21
21.754
  0
LINE
  8
0
 10
-22.3
 11
-22.332
 20
21.754
 21
21.664
  0
LINE
  8
0
 10
-22.332
 11
-22.37
 20
21.664
 21
21.576
  0
LINE
  8
0
 10
-22.37
 11
-22.414
 20
21.576
 21
21.491
  0
LINE
  8
0
 10
-22.414
 11
-22.462
 20
21.491
 21
21.408
  0
LINE
  8
0
 10
-22.462
 11
-22.516
 20
21.408
 21
21.329
  0
LINE
  8
0
 10
-22.516
 11
-22.575
 20
21.329
 21
21.254
  0
LINE
  8
0
 10
-22.575
 11
-22.638
 20
21.254
 21
21.182
  0
LINE
  8
0
 10
-22.638
 11
-22.706
 20
21.182
 21
21.114
  0
LINE
  8
0
 10
-22.706
 11
-22.778
 20
21.114
 21
21.051
  0
LINE
  8
0
 10
-22.778
 11
-22.853
 20
21.051
 21
20.992
  0
LINE
  8
0
 10
-22.853
 11
-22.932
 20
20.992
 21
20.938
  0
LINE
  8
0
 10
-22.932
 11
-23.015
 20
20.938
 21
20.89
  0
LINE
  8
0
 10
-23.015
 11
-23.1
 20
20.89
 21
20.846
  0
LINE
  8
0
 10
-23.1
 11
-23.188
 20
20.846
 21
20.808
  0
LINE
  8
0
 10
-23.188
 11
-23.278
 20
20.808
 21
20.776
  0
LINE
  8
0
 10
-23.278
 11
-23.37
 20
20.776
 21
20.749
  0
LINE
  8
0
 10
-23.37
 11
-23.463
 20
20.749
 21
20.728
  0
LINE
  8
0
 10
-23.463
 11
-23.558
 20
20.728
 21
20.713
  0
LINE
  8
0
 10
-23.558
 11
-23.653
 20
20.713
 21
20.704
  0
LINE
  8
0
 10
-23.653
 11
-23.749
 20
20.704
 21
20.701
  0
LINE
  8
0
 10
-23.749
 11
-23.845
 20
20.701
 21
20.704
  0
LINE
  8
0
 10
-23.845
 11
-23.94
 20
20.704
 21
20.713
  0
LINE
  8
0
 10
-23.94
 11
-24.035
 20
20.713
 21
20.728
  0
LINE
  8
0
 10
-24.035
 11
-24.128
 20
20.728
 21
20.749
  0
LINE
  8
0
 10
-24.128
 11
-24.22
 20
20.749
 21
20.776
  0
LINE
  8
0
 10
-24.22
 11
-24.31
 20
20.776
 21
20.808
  0
LINE
  8
0
 10
-24.31
 11
-24.398
 20
20.808
 21
20.846
  0
LINE
  8
0
 10
-24.398
 11
-24.483
 20
20.846
 21
20.89
  0
LINE
  8
0
 10
-24.483
 11
-24.566
 20
20.89
 21
20.938
  0
LINE
  8
0
 10
-24.566
 11
-24.645
 20
20.938
 21
20.992
  0
LINE
  8
0
 10
-24.645
 11
-24.72
 20
20.992
 21
21.051
  0
LINE
  8
0
 10
-24.72
 11
-24.792
 20
21.051
 21
21.114
  0
LINE
  8
0
 10
-24.792
 11
-24.86
 20
21.114
 21
21.182
  0
LINE
  8
0
 10
-24.86
 11
-24.923
 20
21.182
 21
21.254
  0
LINE
  8
0
 10
-24.923
 11
-24.982
 20
21.254
 21
21.329
  0
LINE
  8
0
 10
-24.982
 11
-25.036
 20
21.329
 21
21.408
  0
LINE
  8
0
 10
-25.036
 11
-25.084
 20
21.408
 21
21.491
  0
LINE
  8
0
 10
-25.084
 11
-25.128
 20
21.491
 21
21.576
  0
LINE
  8
0
 10
-25.128
 11
-25.166
 20
21.576
 21
21.664
  0
LINE
  8
0
 10
-25.166
 11
-25.198
 20
21.664
 21
21.754
  0
LINE
  8
0
 10
-25.198
 11
-25.225
 20
21.754
 21
21.846
  0
LINE
  8
0
 10
-25.225
 11
-25.246
 20
21.846
 21
21.939
  0
LINE
  8
0
 10
-25.246
 11
-25.261
 20
21.939
 21
22.034
  0
LINE
  8
0
 10
-25.261
 11
-25.27
 20
22.034
 21
22.129
  0
LINE
  8
0
 10
-25.27
 11
-25.273
 20
22.129
 21
22.225
  0
LINE
  8
0
 10
-11.938
 11
-11.935
 20
-22.225
 21
-22.129
  0
LINE
  8
0
 10
-11.935
 11
-11.926
 20
-22.129
 21
-22.034
  0
LINE
  8
0
 10
-11.926
 11
-11.911
 20
-22.034
 21
-21.939
  0
LINE
  8
0
 10
-11.911
 11
-11.89
 20
-21.939
 21
-21.846
  0
LINE
  8
0
 10
-11.89
 11
-11.863
 20
-21.846
 21
-21.754
  0
LINE
  8
0
 10
-11.863
 11
-11.831
 20
-21.754
 21
-21.664
  0
LINE
  8
0
 10
-11.831
 11
-11.793
 20
-21.664
 21
-21.576
  0
LINE
  8
0
 10
-11.793
 11
-11.749
 20
-21.576
 21
-21.491
  0
LINE
  8
0
 10
-11.749
 11
-11.701
 20
-21.491
 21
-21.408
  0
LINE
  8
0
 10
-11.701
 11
-11.647
 20
-21.408
 21
-21.329
  0
LINE
  8
0
 10
-11.647
 11
-11.588
 20
-21.329
 21
-21.254
  0
LINE
  8
0
 10
-11.588
 11
-11.525
 20
-21.254
 21
-21.182
  0
LINE
  8
0
 10
-11.525
 11
-11.457
 20
-21.182
 21
-21.114
  0
LINE
  8
0
 10
-11.457
 11
-11.385
 20
-21.114
 21
-21.051
  0
LINE
  8
0
 10
-11.385
 11
-11.31
 20
-21.051
 21
-20.992
  0
LINE
  8
0
 10
-11.31
 11
-11.231
 20
-20.992
 21
-20.938
  0
LINE
  8
0
 10
-11.231
 11
-11.148
 20
-20.938
 21
-20.89
  0
LINE
  8
0
 10
-11.148
 11
-11.063
 20
-20.89
 21
-20.846
  0
LINE
  8
0
 10
-11.063
 11
-10.975
 20
-20.846
 21
-20.808
  0
LINE
  8
0
 10
-10.975
 11
-10.885
 20
-20.808
 21
-20.776
  0
LINE
  8
0
 10
-10.885
 11
-10.793
 20
-20.776
 21
-20.749
  0
LINE
  8
0
 10
-10.793
 11
-10.7
 20
-20.749
 21
-20.728
  0
LINE
  8
0
 10
-10.7
 11
-10.605
 20
-20.728
 21
-20.713
  0
LINE
  8
0
 10
-10.605
 11
-10.51
 20
-20.713
 21
-20.704
  0
LINE
  8
0
 10
-10.51
 11
-10.414
 20
-20.704
 21
-20.701
  0
LINE
  8
0
 10
-10.414
 11
-10.318
 20
-20.701
 21
-20.704
  0
LINE
  8
0
 10
-10.318
 11
-10.223
 20
-20.704
 21
-20.713
  0
LINE
  8
0
 10
-10.223
 11
-10.128
 20
-20.713
 21
-20.728
  0
LINE
  8
0
 10
-10.128
 11
-10.035
 20
-20.728
 21
-20.749
  0
LINE
  8
0
 10
-10.035
 11
-9.943
 20
-20.749
 21
-20.776
  0
LINE
  8
0
 10
-9.943
 11
-9.853
 20
-20.776
 21
-20.808
  0
LINE
  8
0
 10
-9.853
 11
-9.765
 20
-20.808
 21
-20.846
  0
LINE
  8
0
 10
-9.765
 11
-9.68
 20
-20.846
 21
-20.89
  0
LINE
  8
0
 10
-9.68
 11
-9.597
 20
-20.89
 21
-20.938
  0
LINE
  8
0
 10
-9.597
 11
-9.518
 20
-20.938
 21
-20.992
  0
LINE
  8
0
 10
-9.518
 11
-9.443
 20
-20.992
 21
-21.051
  0
LINE
  8
0
 10
-9.443
 11
-9.371
 20
-21.051
 21
-21.114
  0
LINE
  8
0
 10
-9.371
 11
-9.303
 20
-21.114
 21
-21.182
  0
LINE
  8
0
 10
-9.303
 11
-9.24
 20
-21.182
 21
-21.254
  0
LINE
  8
0
 10
-9.24
 11
-9.181
 20
-21.254
 21
-21.329
  0
LINE
  8
0
 10
-9.181
 11
-9.127
 20
-21.329
 21
-21.408
  0
LINE
  8
0
 10
-9.127
 11
-9.079
 20
-21.408
 21
-21.491
  0
LINE
  8
0
 10
-9.079
 11
-9.035
 20
-21.491
 21
-21.576
  0
LINE
  8
0
 10
-9.035
 11
-8.997
 20
-21.576
 21
-21.664
  0
LINE
  8
0
 10
-8.997
 11
-8.965
 20
-21.664
 21
-21.754
  0
LINE
  8
0
 10
-8.965
 11
-8.938
 20
-21.754
 21
-21.846
  0
LINE
  8
0
 10
-8.938
 11
-8.917
 20
-21.846
 21
-21.939
  0
LINE
  8
0
 10
-8.917
 11
-8.902
 20
-21.939
 21
-22.034
  0
LINE
  8
0
 10
-8.902
 11
-8.893
 20
-22.034
 21
-22.129
  0
LINE
  8
0
 10
-8.893
 11
-8.89
 20
-22.129
 21
-22.225
  0
LINE
  8
0
 10
-8.89
 11
-8.893
 20
-22.225
 21
-22.321
  0
LINE
  8
0
 10
-8.893
 11
-8.902
 20
-22.321
 21
-22.416
  0
LINE
  8
0
 10
-8.902
 11
-8.917
 20
-22.416
 21
-22.511
  0
LINE
  8
0
 10
-8.917
 11
-8.938
 20
-22.511
 21
-22.604
  0
LINE
  8
0
 10
-8.938
 11
-8.965
 20
-22.604
 21
-22.696
  0
LINE
  8
0
 10
-8.965
 11
-8.997
 20
-22.696
 21
-22.786
  0
LINE
  8
0
 10
-8.997
 11
-9.035
 20
-22.786
 21
-22.874
  0
LINE
  8
0
 10
-9.035
 11
-9.079
 20
-22.874
 21
-22.959
  0
LINE
  8
0
 10
-9.079
 11
-9.127
 20
-22.959
 21
-23.042
  0
LINE
  8
0
 10
-9.127
 11
-9.181
 20
-23.042
 21
-23.121
  0
LINE
  8
0
 10
-9.181
 11
-9.24
 20
-23.121
 21
-23.196
  0
LINE
  8
0
 10
-9.24
 11
-9.303
 20
-23.196
 21
-23.268
  0
LINE
  8
0
 10
-9.303
 11
-9.371
 20
-23.268
 21
-23.336
  0
LINE
  8
0
 10
-9.371
 11
-9.443
 20
-23.336
 21
-23.399
  0
LINE
  8
0
 10
-9.443
 11
-9.518
 20
-23.399
 21
-23.458
  0
LINE
  8
0
 10
-9.518
 11
-9.597
 20
-23.458
 21
-23.512
  0
LINE
  8
0
 10
-9.597
 11
-9.68
 20
-23.512
 21
-23.56
  0
LINE
  8
0
 10
-9.68
 11
-9.765
 20
-23.56
 21
-23.604
  0
LINE
  8
0
 10
-9.765
 11
-9.853
 20
-23.604
 21
-23.642
  0
LINE
  8
0
 10
-9.853
 11
-9.943
 20
-23.642
 21
-23.674
  0
LINE
  8
0
 10
-9.943
 11
-10.035
 20
-23.674
 21
-23.701
  0
LINE
  8
0
 10
-10.035
 11
-10.128
 20
-23.701
 21
-23.722
  0
LINE
  8
0
 10
-10.128
 11
-10.223
 20
-23.722
 21
-23.737
  0
LINE
  8
0
 10
-10.223
 11
-10.318
 20
-23.737
 21
-23.746
  0
LINE
  8
0
 10
-10.318
 11
-10.414
 20
-23.746
 21
-23.749
  0
LINE
  8
0
 10
-10.414
 11
-10.51
 20
-23.749
 21
-23.746
  0
LINE
  8
0
 10
-10.51
 11
-10.605
 20
-23.746
 21
-23.737
  0
LINE
  8
0
 10
-10.605
 11
-10.7
 20
-23.737
 21
-23.722
  0
LINE
  8
0
 10
-10.7
 11
-10.793
 20
-23.722
 21
-23.701
  0
LINE
  8
0
 10
-10.793
 11
-10.885
 20
-23.701
 21
-23.674
  0
LINE
  8
0
 10
-10.885
 11
-10.975
 20
-23.674
 21
-23.642
  0
LINE
  8
0
 10
-10.975
 11
-11.063
 20
-23.642
 21
-23.604
  0
LINE
  8
0
 10
-11.063
 11
-11.148
 20
-23.604
 21
-23.56
  0
LINE
  8
0
 10
-11.148
 11
-11.231
 20
-23.56
 21
-23.512
  0
LINE
  8
0
 10
-11.231
 11
-11.31
 20
-23.512
 21
-23.458
  0
LINE
  8
0
 10
-11.31
 11
-11.385
 20
-23.458
 21
-23.399
  0
LINE
  8
0
 10
-11.385
 11
-11.457
 20
-23.399
 21
-23.336
  0
LINE
  8
0
 10
-11.457
 11
-11.525
 20
-23.336
 21
-23.268
  0
LINE
  8
0
 10
-11.525
 11
-11.588
 20
-23.268
 21
-23.196
  0
LINE
  8
0
 10
-11.588
 11
-11.647
 20
-23.196
 21
-23.121
  0
LINE
  8
0
 10
-11.647
 11
-11.701
 20
-23.121
 21
-23.042
  0
LINE
  8
0
 10
-11.701
 11
-11.749
 20
-23.042
 21
-22.959
  0
LINE
  8
0
 10
-11.749
 11
-11.793
 20
-22.959
 21
-22.874
  0
LINE
  8
0
 10
-11.793
 11
-11.831
 20
-22.874
 21
-22.786
  0
LINE
  8
0
 10
-11.831
 11
-11.863
 20
-22.786
 21
-22.696
  0
LINE
  8
0
 10
-11.863
 11
-11.89
 20
-22.696
 21
-22.604
  0
LINE
  8
0
 10
-11.89
 11
-11.911
 20
-22.604
 21
-22.511
  0
LINE
  8
0
 10
-11.911
 11
-11.926
 20
-22.511
 21
-22.416
  0
LINE
  8
0
 10
-11.926
 11
-11.935
 20
-22.416
 21
-22.321
  0
LINE
  8
0
 10
-11.935
 11
-11.938
 20
-22.321
 21
-22.225
  0
LINE
  8
0
 10
8.89
 11
8.893
 20
-22.225
 21
-22.129
  0
LINE
  8
0
 10
8.893
 11
8.902
 20
-22.129
 21
-22.034
  0
LINE
  8
0
 10
8.902
 11
8.917
 20
-22.034
 21
-21.939
  0
LINE
  8
0
 10
8.917
 11
8.938
 20
-21.939
 21
-21.846
  0
LINE
  8
0
 10
8.938
 11
8.965
 20
-21.846
 21
-21.754
  0
LINE
  8
0
 10
8.965
 11
8.997
 20
-21.754
 21
-21.664
  0
LINE
  8
0
 10
8.997
 11
9.035
 20
-21.664
 21
-21.576
  0
LINE
  8
0
 10
9.035
 11
9.079
 20
-21.576
 21
-21.491
  0
LINE
  8
0
 10
9.079
 11
9.127
 20
-21.491
 21
-21.408
  0
LINE
  8
0
 10
9.127
 11
9.181
 20
-21.408
 21
-21.329
  0
LINE
  8
0
 10
9.181
 11
9.24
 20
-21.329
 21
-21.254
  0
LINE
  8
0
 10
9.24
 11
9.303
 20
-21.254
 21
-21.182
  0
LINE
  8
0
 10
9.303
 11
9.371
 20
-21.182
 21
-21.114
  0
LINE
  8
0
 10
9.371
 11
9.443
 20
-21.114
 21
-21.051
  0
LINE
  8
0
 10
9.443
 11
9.518
 20
-21.051
 21
-20.992
  0
LINE
  8
0
 10
9.518
 11
9.597
 20
-20.992
 21
-20.938
  0
LINE
  8
0
 10
9.597
 11
9.68
 20
-20.938
 21
-20.89
  0
LINE
  8
0
 10
9.68
 11
9.765
 20
-20.89
 21
-20.846
  0
LINE
  8
0
 10
9.765
 11
9.853
 20
-20.846
 21
-20.808
  0
LINE
  8
0
 10
9.853
 11
9.943
 20
-20.808
 21
-20.776
  0
LINE
  8
0
 10
9.943
 11
10.035
 20
-20.776
 21
-20.749
  0
LINE
  8
0
 10
10.035
 11
10.128
 20
-20.749
 21
-20.728
  0
LINE
  8
0
 10
10.128
 11
10.223
 20
-20.728
 21
-20.713
  0
LINE
  8
0
 10
10.223
 11
10.318
 20
-20.713
 21
-20.704
  0
LINE
  8
0
 10
10.318
 11
10.414
 20
-20.704
 21
-20.701
  0
LINE
  8
0
 10
10.414
 11
10.51
 20
-20.701
 21
-20.704
  0
LINE
  8
0
 10
10.51
 11
10.605
 20
-20.704
 21
-20.713
  0
LINE
  8
0
 10
10.605
 11
10.7
 20
-20.713
 21
-20.728
  0
LINE
  8
0
 10
10.7
 11
10.793
 20
-20.728
 21
-20.749
  0
LINE
  8
0
 10
10.793
 11
10.885
 20
-20.749
 21
-20.776
  0
LINE
  8
0
 10
10.885
 11
10.975
 20
-20.776
 21
-20.808
  0
LINE
  8
0
 10
10.975
 11
11.063
 20
-20.808
 21
-20.846
  0
LINE
  8
0
 10
11.063
 11
11.148
 20
-20.846
 21
-20.89
  0
LINE
  8
0
 10
11.148
 11
11.231
 20
-20.89
 21
-20.938
  0
LINE
  8
0
 10
11.231
 11
11.31
 20
-20.938
 21
-20.992
  0
LINE
  8
0
 10
11.31
 11
11.385
 20
-20.992
 21
-21.051
  0
LINE
  8
0
 10
11.385
 11
11.457
 20
-21.051
 21
-21.114
  0
LINE
  8
0
 10
11.457
 11
11.525
 20
-21.114
 21
-21.182
  0
LINE
  8
0
 10
11.525
 11
11.588
 20
-21.182
 21
-21.254
  0
LINE
  8
0
 10
11.588
 11
11.647
 20
-21.254
 21
-21.329
  0
LINE
  8
0
 10
11.647
 11
11.701
 20
-21.329
 21
-21.408
  0
LINE
  8
0
 10
11.701
 11
11.749
 20
-21.408
 21
-21.491
  0
LINE
  8
0
 10
11.749
 11
11.793
 20
-21.491
 21
-21.576
  0
LINE
  8
0
 10
11.793
 11
11.831
 20
-21.576
 21
-21.664
  0
LINE
  8
0
 10
11.831
 11
11.863
 20
-21.664
 21
-21.754
  0
LINE
  8
0
 10
11.863
 11
11.89
 20
-21.754
 21
-21.846
  0
LINE
  8
0
 10
11.89
 11
11.911
 20
-21.846
 21
-21.939
  0
LINE
  8
0
 10
11.911
 11
11.926
 20
-21.939
 21
-22.034
  0
LINE
  8
0
 10
11.926
 11
11.935
 20
-22.034
 21
-22.129
  0
LINE
  8
0
 10
11.935
 11
11.938
 20
-22.129
 21
-22.225
  0
LINE
  8
0
 10
11.938
 11
11.935
 20
-22.225
 21
-22.321
  0
LINE
  8
0
 10
11.935
 11
11.926
 20
-22.321
 21
-22.416
  0
LINE
  8
0
 10
11.926
 11
11.911
 20
-22.416
 21
-22.511
  0
LINE
  8
0
 10
11.911
 11
11.89
 20
-22.511
 21
-22.604
  0
LINE
  8
0
 10
11.89
 11
11.863
 20
-22.604
 21
-22.696
  0
LINE
  8
0
 10
11.863
 11
11.831
 20
-22.696
 21
-22.786
  0
LINE
  8
0
 10
11.831
 11
11.793
 20
-22.786
 21
-22.874
  0
LINE
  8
0
 10
11.793
 11
11.749
 20
-22.874
 21
-22.959
  0
LINE
  8
0
 10
11.749
 11
11.701
 20
-22.959
 21
-23.042
  0
LINE
  8
0
 10
11.701
 11
11.647
 20
-23.042
 21
-23.121
  0
LINE
  8
0
 10
11.647
 11
11.588
 20
-23.121
 21
-23.196
  0
LINE
  8
0
 10
11.588
 11
11.525
 20
-23.196
 21
-23.268
  0
LINE
  8
0
 10
11.525
 11
11.457
 20
-23.268
 21
-23.336
  0
LINE
  8
0
 10
11.457
 11
11.385
 20
-23.336
 21
-23.399
  0
LINE
  8
0
 10
11.385
 11
11.31
 20
-23.399
 21
-23.458
  0
LINE
  8
0
 10
11.31
 11
11.231
 20
-23.458
 21
-23.512
  0
LINE
  8
0
 10
11.231
 11
11.148
 20
-23.512
 21
-23.56
  0
LINE
  8
0
 10
11.148
 11
11.063
 20
-23.56
 21
-23.604
  0
LINE
  8
0
 10
11.063
 11
10.975
 20
-23.604
 21
-23.642
  0
LINE
  8
0
 10
10.975
 11
10.885
 20
-23.642
 21
-23.674
  0
LINE
  8
0
 10
10.885
 11
10.793
 20
-23.674
 21
-23.701
  0
LINE
  8
0
 10
10.793
 11
10.7
 20
-23.701
 21
-23.722
  0
LINE
  8
0
 10
10.7
 11
10.605
 20
-23.722
 21
-23.737
  0
LINE
  8
0
 10
10.605
 11
10.51
 20
-23.737
 21
-23.746
  0
LINE
  8
0
 10
10.51
 11
10.414
 20
-23.746
 21
-23.749
  0
LINE
  8
0
 10
10.414
 11
10.318
 20
-23.749
 21
-23.746
  0
LINE
  8
0
 10
10.318
 11
10.223
 20
-23.746
 21
-23.737
  0
LINE
  8
0
 10
10.223
 11
10.128
 20
-23.737
 21
-23.722
  0
LINE
  8
0
 10
10.128
 11
10.035
 20
-23.722
 21
-23.701
  0
LINE
  8
0
 10
10.035
 11
9.943
 20
-23.701
 21
-23.674
  0
LINE
  8
0
 10
9.943
 11
9.853
 20
-23.674
 21
-23.642
  0
LINE
  8
0
 10
9.853
 11
9.765
 20
-23.642
 21
-23.604
  0
LINE
  8
0
 10
9.765
 11
9.68
 20
-23.604
 21
-23.56
  0
LINE
  8
0
 10
9.68
 11
9.597
 20
-23.56
 21
-23.512
  0
LINE
  8
0
 10
9.597
 11
9.518
 20
-23.512
 21
-23.458
  0
LINE
  8
0
 10
9.518
 11
9.443
 20
-23.458
 21
-23.399
  0
LINE
  8
0
 10
9.443
 11
9.371
 20
-23.399
 21
-23.336
  0
LINE
  8
0
 10
9.371
 11
9.303
 20
-23.336
 21
-23.268
  0
LINE
  8
0
 10
9.303
 11
9.24
 20
-23.268
 21
-23.196
  0
LINE
  8
0
 10
9.24
 11
9.181
 20
-23.196
 21
-23.121
  0
LINE
  8
0
 10
9.181
 11
9.127
 20
-23.121
 21
-23.042
  0
LINE
  8
0
 10
9.127
 11
9.079
 20
-23.042
 21
-22.959
  0
LINE
  8
0
 10
9.079
 11
9.035
 20
-22.959
 21
-22.874
  0
LINE
  8
0
 10
9.035
 11
8.997
 20
-22.874
 21
-22.786
  0
LINE
  8
0
 10
8.997
 11
8.965
 20
-22.786
 21
-22.696
  0
LINE
  8
0
 10
8.965
 11
8.938
 20
-22.696
 21
-22.604
  0
LINE
  8
0
 10
8.938
 11
8.917
 20
-22.604
 21
-22.511
  0
LINE
  8
0
 10
8.917
 11
8.902
 20
-22.511
 21
-22.416
  0
LINE
  8
0
 10
8.902
 11
8.893
 20
-22.416
 21
-22.321
  0
LINE
  8
0
 10
8.893
 11
8.89
 20
-22.321
 21
-22.225
  0
LINE
  8
0
 10
22.225
 11
22.228
 20
22.225
 21
22.321
  0
LINE
  8
0
 10
22.228
 11
22.237
 20
22.321
 21
22.416
  0
LINE
  8
0
 10
22.237
 11
22.252
 20
22.416
 21
22.511
  0
LINE
  8
0
 10
22.252
 11
22.273
 20
22.511
 21
22.604
  0
LINE
  8
0
 10
22.273
 11
22.3
 20
22.604
 21
22.696
  0
LINE
  8
0
 10
22.3
 11
22.332
 20
22.696
 21
22.786
  0
LINE
  8
0
 10
22.332
 11
22.37
 20
22.786
 21
22.874
  0
LINE
  8
0
 10
22.37
 11
22.414
 20
22.874
 21
22.959
  0
LINE
  8
0
 10
22.414
 11
22.462
 20
22.959
 21
23.042
  0
LINE
  8
0
 10
22.462
 11
22.516
 20
23.042
 21
23.121
  0
LINE
  8
0
 10
22.516
 11
22.575
 20
23.121
 21
23.196
  0
LINE
  8
0
 10
22.575
 11
22.638
 20
23.196
 21
23.268
  0
LINE
  8
0
 10
22.638
 11
22.706
 20
23.268
 21
23.336
  0
LINE
  8
0
 10
22.706
 11
22.778
 20
23.336
 21
23.399
  0
LINE
  8
0
 10
22.778
 11
22.853
 20
23.399
 21
23.458
  0
LINE
  8
0
 10
22.853
 11
22.932
 20
23.458
 21
23.512
  0
LINE
  8
0
 10
22.932
 11
23.015
 20
23.512
 21
23.56
  0
LINE
  8
0
 10
23.015
 11
23.1
 20
23.56
 21
23.604
  0
LINE
  8
0
 10
23.1
 11
23.188
 20
23.604
 21
23.642
  0
LINE
  8
0
 10
23.188
 11
23.278
 20
23.642
 21
23.674
  0
LINE
  8
0
 10
23.278
 11
23.37
 20
23.674
 21
23.701
  0
LINE
  8
0
 10
23.37
 11
23.463
 20
23.701
 21
23.722
  0
LINE
  8
0
 10
23.463
 11
23.558
 20
23.722
 21
23.737
  0
LINE
  8
0
 10
23.558
 11
23.653
 20
23.737
 21
23.746
  0
LINE
  8
0
 10
23.653
 11
23.749
 20
23.746
 21
23.749
  0
LINE
  8
0
 10
23.749
 11
23.845
 20
23.749
 21
23.746
  0
LINE
  8
0
 10
23.845
 11
23.94
 20
23.746
 21
23.737
  0
LINE
  8
0
 10
23.94
 11
24.035
 20
23.737
 21
23.722
  0
LINE
  8
0
 10
24.035
 11
24.128
 20
23.722
 21
23.701
  0
LINE
  8
0
 10
24.128
 11
24.22
 20
23.701
 21
23.674
  0
LINE
  8
0
 10
24.22
 11
24.31
 20
23.674
 21
23.642
  0
LINE
  8
0
 10
24.31
 11
24.398
 20
23.642
 21
23.604
  0
LINE
  8
0
 10
24.398
 11
24.483
 20
23.604
 21
23.56
  0
LINE
  8
0
 10
24.483
 11
24.566
 20
23.56
 21
23.512
  0
LINE
  8
0
 10
24.566
 11
24.645
 20
23.512
 21
23.458
  0
LINE
  8
0
 10
24.645
 11
24.72
 20
23.458
 21
23.399
  0
LINE
  8
0
 10
24.72
 11
24.792
 20
23.399
 21
23.336
  0
LINE
  8
0
 10
24.792
 11
24.86
 20
23.336
 21
23.268
  0
LINE
  8
0
 10
24.86
 11
24.923
 20
23.268
 21
23.196
  0
LINE
  8
0
 10
24.923
 11
24.982
 20
23.196
 21
23.121
  0
LINE
  8
0
 10
24.982
 11
25.036
 20
23.121
 21
23.042
  0
LINE
  8
0
 10
25.036
 11
25.084
 20
23.042
 21
22.959
  0
LINE
  8
0
 10
25.084
 11
25.128
 20
22.959
 21
22.874
  0
LINE
  8
0
 10
25.128
 11
25.166
 20
22.874
 21
22.786
  0
LINE
  8
0
 10
25.166
 11
25.198
 20
22.786
 21
22.696
  0
LINE
  8
0
 10
25.198
 11
25.225
 20
22.696
 21
22.604
  0
LINE
  8
0
 10
25.225
 11
25.246
 20
22.604
 21
22.511
  0
LINE
  8
0
 10
25.246
 11
25.261
 20
22.511
 21
22.416
  0
LINE
  8
0
 10
25.261
 11
25.27
 20
22.416
 21
22.321
  0
LINE
  8
0
 10
25.27
 11
25.273
 20
22.321
 21
22.225
  0
LINE
  8
0
 10
25.273
 11
25.27
 20
22.225
 21
22.129
  0
LINE
  8
0
 10
25.27
 11
25.261
 20
22.129
 21
22.034
  0
LINE
  8
0
 10
25.261
 11
25.246
 20
22.034
 21
21.939
  0
LINE
  8
0
 10
25.246
 11
25.225
 20
21.939
 21
21.846
  0
LINE
  8
0
 10
25.225
 11
25.198
 20
21.846
 21
21.754
  0
LINE
  8
0
 10
25.198
 11
25.166
 20
21.754
 21
21.664
  0
LINE
  8
0
 10
25.166
 11
25.128
 20
21.664
 21
21.576
  0
LINE
  8
0
 10
25.128
 11
25.084
 20
21.576
 21
21.491
  0
LINE
  8
0
 10
25.084
 11
25.036
 20
21.491
 21
21.408
  0
LINE
  8
0
 10
25.036
 11
24.982
 20
21.408
 21
21.329
  0
LINE
  8
0
 10
24.982
 11
24.923
 20
21.329
 21
21.254
  0
LINE
  8
0
 10
24.923
 11
24.86
 20
21.254
 21
21.182
  0
LINE
  8
0
 10
24.86
 11
24.792
 20
21.182
 21
21.114
  0
LINE
  8
0
 10
24.792
 11
24.72
 20
21.114
 21
21.051
  0
LINE
  8
0
 10
24.72
 11
24.645
 20
21.051
 21
20.992
  0
LINE
  8
0
 10
24.645
 11
24.566
 20
20.992
 21
20.938
  0
LINE
  8
0
 10
24.566
 11
24.483
 20
20.938
 21
20.89
  0
LINE
  8
0
 10
24.483
 11
24.398
 20
20.89
 21
20.846
  0
LINE
  8
0
 10
24.398
 11
24.31
 20
20.846
 21
20.808
  0
LINE
  8
0
 10
24.31
 11
24.22
 20
20.808
 21
20.776
  0
LINE
  8
0
 10
24.22
 11
24.128
 20
20.776
 21
20.749
  0
LINE
  8
0
 10
24.128
 11
24.035
 20
20.749
 21
20.728
  0
LINE
  8
0
 10
24.035
 11
23.94
 20
20.728
 21
20.713
  0
LINE
  8
0
 10
23.94
 11
23.845
 20
20.713
 21
20.704
  0
LINE
  8
0
 10
23.845
 11
23.749
 20
20.704
 21
20.701
  0
LINE
  8
0
 10
23.749
 11
23.653
 20
20.701
 21
20.704
  0
LINE
  8
0
 10
23.653
 11
23.558
 20
20.704
 21
20.713
  0
LINE
  8
0
 10
23.558
 11
23.463
 20
20.713
 21
20.728
  0
LINE
  8
0
 10
23.463
 11
23.37
 20
20.728
 21
20.749
  0
LINE
  8
0
 10
23.37
 11
23.278
 20
20.749
 21
20.776
  0
LINE
  8
0
 10
23.278
 11
23.188
 20
20.776
 21
20.808
  0
LINE
  8
0
 10
23.188
 11
23.1
 20
20.808
 21
20.846
  0
LINE
  8
0
 10
23.1
 11
23.015
 20
20.846
 21
20.89
  0
LINE
  8
0
 10
23.015
 11
22.932
 20
20.89
 21
20.938
  0
LINE
  8
0
 10
22.932
 11
22.853
 20
20.938
 21
20.992
  0
LINE
  8
0
 10
22.853
 11
22.778
 20
20.992
 21
21.051
  0
LINE
  8
0
 10
22.778
 11
22.706
 20
21.051
 21
21.114
  0
LINE
  8
0
 10
22.706
 11
22.638
 20
21.114
 21
21.182
  0
LINE
  8
0
 10
22.638
 11
22.575
 20
21.182
 21
21.254
  0
LINE
  8
0
 10
22.575
 11
22.516
 20
21.254
 21
21.329
  0
LINE
  8
0
 10
22.516
 11
22.462
 20
21.329
 21
21.408
  0
LINE
  8
0
 10
22.462
 11
22.414
 20
21.408
 21
21.491
  0
LINE
  8
0
 10
22.414
 11
22.37
 20
21.491
 21
21.576
  0
LINE
  8
0
 10
22.37
 11
22.332
 20
21.576
 21
21.664
  0
LINE
  8
0
 10
22.332
 11
22.3
 20
21.664
 21
21.754
  0
LINE
  8
0
 10
22.3
 11
22.273
 20
21.754
 21
21.846
  0
LINE
  8
0
 10
22.273
 11
22.252
 20
21.846
 21
21.939
  0
LINE
  8
0
 10
22.252
 11
22.237
 20
21.939
 21
22.034
  0
LINE
  8
0
 10
22.237
 11
22.228
 20
22.034
 21
22.129
  0
LINE
  8
0
 10
22.228
 11
22.225
 20
22.129
 21
22.225
  0
ENDSEC
  0
SECTION
  2
OBJECTS
  0
DICTIONARY
  0
ENDSEC
  0
EOF
